<svg width="0" height="0" class="hidden">
  <symbol aria-hidden="true" data-prefix="fab" data-icon="facebook-f" xmlns="http://www.w3.org/2000/svg" viewBox="0 0 320 512" id="facebook">
    <path d="M279.14 288l14.22-92.66h-88.91v-60.13c0-25.35 12.42-50.06 52.24-50.06h40.42V6.26S260.43 0 225.36 0c-73.22 0-121.08 44.38-121.08 124.72v70.62H22.89V288h81.39v224h100.17V288z"></path>
  </symbol>
  <symbol xmlns="http://www.w3.org/2000/svg" preserveAspectRatio="xMidYMid" viewBox="0 0 256 256" id="instagram">
    <path d="M226.468 256H29.532C13.224 256 0 242.772 0 226.452V29.532C0 13.223 13.224 0 29.532 0h196.936C242.778 0 256 13.222 256 29.533v196.919c0 16.32-13.221 29.548-29.532 29.548zm-98.47-177.234c-27.19 0-49.23 22.038-49.23 49.23 0 27.187 22.04 49.235 49.23 49.235 27.192 0 49.236-22.048 49.236-49.236 0-27.191-22.044-49.229-49.235-49.229zm98.47-39.389c0-5.434-4.41-9.844-9.856-9.844h-29.533c-5.439 0-9.845 4.41-9.845 9.844v29.544c0 5.435 4.406 9.845 9.845 9.845h29.533c5.446 0 9.856-4.41 9.856-9.845V39.377zm0 68.92h-22.286c1.624 6.303 2.582 12.889 2.582 19.698 0 43.51-35.263 78.771-78.765 78.771-43.5 0-78.766-35.261-78.766-78.77 0-6.81.964-13.396 2.588-19.7H29.532v108.317c0 5.43 4.41 9.839 9.856 9.839h177.224c5.446 0 9.856-4.408 9.856-9.839V108.297z"></path>
  </symbol>
  <symbol aria-hidden="true" data-prefix="fab" data-icon="pinterest-p" xmlns="http://www.w3.org/2000/svg" viewBox="0 0 384 512" id="pinterest">
    <path d="M204 6.5C101.4 6.5 0 74.9 0 185.6 0 256 39.6 296 63.6 296c9.9 0 15.6-27.6 15.6-35.4 0-9.3-23.7-29.1-23.7-67.8 0-80.4 61.2-137.4 140.4-137.4 68.1 0 118.5 38.7 118.5 109.8 0 53.1-21.3 152.7-90.3 152.7-24.9 0-46.2-18-46.2-43.8 0-37.8 26.4-74.4 26.4-113.4 0-66.2-93.9-54.2-93.9 25.8 0 16.8 2.1 35.4 9.6 50.7-13.8 59.4-42 147.9-42 209.1 0 18.9 2.7 37.5 4.5 56.4 3.4 3.8 1.7 3.4 6.9 1.5 50.4-69 48.6-82.5 71.4-172.8 12.3 23.4 44.1 36 69.3 36 106.2 0 153.9-103.5 153.9-196.8C384 71.3 298.2 6.5 204 6.5z"></path>
  </symbol>
</svg>